%TF.GenerationSoftware,KiCad,Pcbnew,9.0.1-9.0.1-0~ubuntu22.04.1*%
%TF.CreationDate,2025-03-31T20:17:24-04:00*%
%TF.ProjectId,usb_power,7573625f-706f-4776-9572-2e6b69636164,rev?*%
%TF.SameCoordinates,Original*%
%TF.FileFunction,Copper,L1,Top*%
%TF.FilePolarity,Positive*%
%FSLAX46Y46*%
G04 Gerber Fmt 4.6, Leading zero omitted, Abs format (unit mm)*
G04 Created by KiCad (PCBNEW 9.0.1-9.0.1-0~ubuntu22.04.1) date 2025-03-31 20:17:24*
%MOMM*%
%LPD*%
G01*
G04 APERTURE LIST*
G04 Aperture macros list*
%AMRoundRect*
0 Rectangle with rounded corners*
0 $1 Rounding radius*
0 $2 $3 $4 $5 $6 $7 $8 $9 X,Y pos of 4 corners*
0 Add a 4 corners polygon primitive as box body*
4,1,4,$2,$3,$4,$5,$6,$7,$8,$9,$2,$3,0*
0 Add four circle primitives for the rounded corners*
1,1,$1+$1,$2,$3*
1,1,$1+$1,$4,$5*
1,1,$1+$1,$6,$7*
1,1,$1+$1,$8,$9*
0 Add four rect primitives between the rounded corners*
20,1,$1+$1,$2,$3,$4,$5,0*
20,1,$1+$1,$4,$5,$6,$7,0*
20,1,$1+$1,$6,$7,$8,$9,0*
20,1,$1+$1,$8,$9,$2,$3,0*%
G04 Aperture macros list end*
%TA.AperFunction,SMDPad,CuDef*%
%ADD10RoundRect,0.218750X0.218750X0.381250X-0.218750X0.381250X-0.218750X-0.381250X0.218750X-0.381250X0*%
%TD*%
%TA.AperFunction,ComponentPad*%
%ADD11C,1.750000*%
%TD*%
%TA.AperFunction,ComponentPad*%
%ADD12C,2.600000*%
%TD*%
%TA.AperFunction,ComponentPad*%
%ADD13R,2.600000X2.600000*%
%TD*%
%TA.AperFunction,ComponentPad*%
%ADD14C,1.200000*%
%TD*%
%TA.AperFunction,ComponentPad*%
%ADD15O,2.400000X1.200000*%
%TD*%
%TA.AperFunction,ComponentPad*%
%ADD16O,2.100000X1.200000*%
%TD*%
%TA.AperFunction,SMDPad,CuDef*%
%ADD17RoundRect,0.200000X-0.200000X-0.275000X0.200000X-0.275000X0.200000X0.275000X-0.200000X0.275000X0*%
%TD*%
%TA.AperFunction,ComponentPad*%
%ADD18R,1.600000X1.600000*%
%TD*%
%TA.AperFunction,ComponentPad*%
%ADD19O,1.600000X1.600000*%
%TD*%
%TA.AperFunction,SMDPad,CuDef*%
%ADD20RoundRect,0.150000X-0.512500X-0.150000X0.512500X-0.150000X0.512500X0.150000X-0.512500X0.150000X0*%
%TD*%
%TA.AperFunction,SMDPad,CuDef*%
%ADD21R,2.200000X1.600000*%
%TD*%
%TA.AperFunction,SMDPad,CuDef*%
%ADD22R,1.600000X2.200000*%
%TD*%
%TA.AperFunction,SMDPad,CuDef*%
%ADD23RoundRect,0.200000X0.200000X0.275000X-0.200000X0.275000X-0.200000X-0.275000X0.200000X-0.275000X0*%
%TD*%
%TA.AperFunction,ViaPad*%
%ADD24C,0.800000*%
%TD*%
%TA.AperFunction,Conductor*%
%ADD25C,0.250000*%
%TD*%
%TA.AperFunction,Conductor*%
%ADD26C,0.200000*%
%TD*%
G04 APERTURE END LIST*
D10*
%TO.P,L1,1,1*%
%TO.N,Net-(J1-VBUS)*%
X118062500Y-45000000D03*
%TO.P,L1,2,2*%
%TO.N,Net-(J2-Pin_1)*%
X115937500Y-45000000D03*
%TD*%
D11*
%TO.P,RV1,1,1*%
%TO.N,Net-(R2-Pad1)*%
X108500000Y-51000000D03*
%TO.P,RV1,2,2*%
%TO.N,Net-(U1-FB)*%
X105960000Y-48460000D03*
%TO.P,RV1,3,3*%
%TO.N,Net-(R1-Pad2)*%
X108500000Y-45920000D03*
%TD*%
D12*
%TO.P,J2,2,Pin_2*%
%TO.N,GND*%
X77195000Y-52000000D03*
D13*
%TO.P,J2,1,Pin_1*%
%TO.N,Net-(J2-Pin_1)*%
X77195000Y-47000000D03*
%TD*%
D14*
%TO.P,J1,1,VBUS*%
%TO.N,Net-(J1-VBUS)*%
X126250000Y-53400000D03*
%TO.P,J1,2,D-*%
%TO.N,Net-(J1-D+)*%
X126250000Y-50900000D03*
%TO.P,J1,3,D+*%
X126250000Y-48900000D03*
%TO.P,J1,4,GND*%
%TO.N,GND*%
X126250000Y-46400000D03*
%TO.P,J1,5,SSRX-*%
%TO.N,unconnected-(J1-SSRX--Pad5)*%
X124750000Y-45900000D03*
%TO.P,J1,6,SSRX+*%
%TO.N,unconnected-(J1-SSRX+-Pad6)*%
X124750000Y-47900000D03*
%TO.P,J1,7,DRAIN*%
%TO.N,unconnected-(J1-DRAIN-Pad7)*%
X124750000Y-49900000D03*
%TO.P,J1,8,SSTX-*%
%TO.N,unconnected-(J1-SSTX--Pad8)*%
X124750000Y-51900000D03*
%TO.P,J1,9,SSTX+*%
%TO.N,unconnected-(J1-SSTX+-Pad9)*%
X124750000Y-53900000D03*
D15*
%TO.P,J1,10,SHIELD*%
%TO.N,unconnected-(J1-SHIELD-Pad10)*%
X125500000Y-56300000D03*
D16*
X134000000Y-56300000D03*
D15*
X125500000Y-43500000D03*
D16*
X134000000Y-43500000D03*
%TD*%
D17*
%TO.P,R1,1*%
%TO.N,Net-(J2-Pin_1)*%
X93155000Y-43180000D03*
%TO.P,R1,2*%
%TO.N,Net-(R1-Pad2)*%
X94805000Y-43180000D03*
%TD*%
D18*
%TO.P,ON/OFF1,1*%
%TO.N,Net-(J1-VBUS)*%
X107907500Y-57150000D03*
D19*
%TO.P,ON/OFF1,2*%
%TO.N,Net-(U1-EN)*%
X100287500Y-57150000D03*
%TD*%
D20*
%TO.P,U1,1,SW*%
%TO.N,Net-(J2-Pin_1)*%
X98557500Y-47310000D03*
%TO.P,U1,2,GND*%
%TO.N,GND*%
X98557500Y-48260000D03*
%TO.P,U1,3,FB*%
%TO.N,Net-(U1-FB)*%
X98557500Y-49210000D03*
%TO.P,U1,4,EN*%
%TO.N,Net-(U1-EN)*%
X100832500Y-49210000D03*
%TO.P,U1,5,IN*%
%TO.N,Net-(J1-VBUS)*%
X100832500Y-48260000D03*
%TO.P,U1,6,NC*%
%TO.N,unconnected-(U1-NC-Pad6)*%
X100832500Y-47310000D03*
%TD*%
D21*
%TO.P,C2,1*%
%TO.N,Net-(J2-Pin_1)*%
X115340000Y-53975000D03*
%TO.P,C2,2*%
%TO.N,GND*%
X118340000Y-53975000D03*
%TD*%
D22*
%TO.P,C1,1*%
%TO.N,Net-(U1-FB)*%
X92075000Y-58015000D03*
%TO.P,C1,2*%
%TO.N,GND*%
X92075000Y-55015000D03*
%TD*%
D23*
%TO.P,R2,1*%
%TO.N,Net-(R2-Pad1)*%
X90233000Y-43688000D03*
%TO.P,R2,2*%
%TO.N,GND*%
X88583000Y-43688000D03*
%TD*%
D24*
%TO.N,Net-(R2-Pad1)*%
X92000000Y-42000000D03*
X104000000Y-49500000D03*
%TO.N,Net-(R1-Pad2)*%
X99000000Y-42500000D03*
X103000000Y-45500000D03*
%TO.N,Net-(U1-FB)*%
X96012000Y-54356000D03*
X87884000Y-56896000D03*
%TO.N,GND*%
X96012000Y-47244000D03*
X86868000Y-44704000D03*
%TD*%
D25*
%TO.N,Net-(J2-Pin_1)*%
X115937500Y-45000000D02*
X115937500Y-45142500D01*
X115937500Y-45142500D02*
X114725000Y-46355000D01*
%TO.N,Net-(J1-VBUS)*%
X118062500Y-45000000D02*
X118870000Y-45000000D01*
X118870000Y-45000000D02*
X120225000Y-46355000D01*
%TO.N,Net-(R2-Pad1)*%
X92000000Y-42000000D02*
X91921000Y-42000000D01*
X108500000Y-51000000D02*
X105500000Y-51000000D01*
X105500000Y-51000000D02*
X104000000Y-49500000D01*
X91921000Y-42000000D02*
X90233000Y-43688000D01*
%TO.N,Net-(R1-Pad2)*%
X108500000Y-45920000D02*
X103420000Y-45920000D01*
X103420000Y-45920000D02*
X103000000Y-45500000D01*
X99000000Y-42500000D02*
X98320000Y-43180000D01*
X98320000Y-43180000D02*
X94805000Y-43180000D01*
%TO.N,Net-(U1-FB)*%
X105540000Y-48460000D02*
X105500000Y-48500000D01*
X105960000Y-48460000D02*
X105540000Y-48460000D01*
X105500000Y-48500000D02*
X103684000Y-46684000D01*
X103684000Y-46684000D02*
X100118678Y-46684000D01*
X100118678Y-46684000D02*
X99546000Y-47256678D01*
X99546000Y-47256678D02*
X99546000Y-48883999D01*
X99546000Y-48883999D02*
X99219999Y-49210000D01*
X99219999Y-49210000D02*
X98557500Y-49210000D01*
%TO.N,GND*%
X77195000Y-52000000D02*
X79980000Y-49215000D01*
X79980000Y-49215000D02*
X92075000Y-49215000D01*
%TO.N,Net-(J2-Pin_1)*%
X77195000Y-47000000D02*
X88500000Y-47000000D01*
X88500000Y-47000000D02*
X92320000Y-43180000D01*
X92320000Y-43180000D02*
X93155000Y-43180000D01*
D26*
%TO.N,Net-(U1-FB)*%
X92075000Y-58015000D02*
X89003000Y-58015000D01*
X89003000Y-58015000D02*
X87884000Y-56896000D01*
X98557500Y-51810500D02*
X98557500Y-49210000D01*
X96012000Y-54356000D02*
X98557500Y-51810500D01*
%TO.N,GND*%
X118340000Y-53975000D02*
X120015000Y-53975000D01*
D25*
X126133562Y-54826000D02*
X120866000Y-54826000D01*
X126250000Y-46400000D02*
X127176000Y-47326000D01*
D26*
X88583000Y-43688000D02*
X87884000Y-43688000D01*
D25*
X120866000Y-54826000D02*
X120020000Y-53980000D01*
D26*
X87884000Y-43688000D02*
X86868000Y-44704000D01*
X120396000Y-54356000D02*
X120396000Y-57912000D01*
X120015000Y-53975000D02*
X120020000Y-53980000D01*
D25*
X127176000Y-53783562D02*
X126133562Y-54826000D01*
D26*
X96012000Y-47244000D02*
X97028000Y-48260000D01*
X92075000Y-55015000D02*
X92075000Y-49215000D01*
X93030000Y-48260000D02*
X98557500Y-48260000D01*
X120396000Y-57912000D02*
X116840000Y-61468000D01*
X92075000Y-49215000D02*
X93030000Y-48260000D01*
D25*
X127176000Y-47326000D02*
X127176000Y-53783562D01*
D26*
X116840000Y-61468000D02*
X98528000Y-61468000D01*
X98528000Y-61468000D02*
X92075000Y-55015000D01*
X120020000Y-53980000D02*
X120396000Y-54356000D01*
%TO.N,Net-(J2-Pin_1)*%
X101969500Y-43898000D02*
X112268000Y-43898000D01*
X112268000Y-43898000D02*
X114725000Y-46355000D01*
X114725000Y-46355000D02*
X114725000Y-53360000D01*
X114725000Y-53360000D02*
X115340000Y-53975000D01*
X98557500Y-47310000D02*
X101969500Y-43898000D01*
D25*
%TO.N,Net-(J1-D+)*%
X126250000Y-48900000D02*
X126250000Y-50900000D01*
%TO.N,Net-(J1-VBUS)*%
X126250000Y-53400000D02*
X125676000Y-52826000D01*
D26*
X120225000Y-46355000D02*
X116739511Y-49840489D01*
X101180717Y-48260000D02*
X100832500Y-48260000D01*
D25*
X120225000Y-48725000D02*
X120225000Y-46355000D01*
X125676000Y-52826000D02*
X124326000Y-52826000D01*
D26*
X116739511Y-55074511D02*
X114664022Y-57150000D01*
X114664022Y-57150000D02*
X107907500Y-57150000D01*
D25*
X124326000Y-52826000D02*
X120225000Y-48725000D01*
D26*
X107907500Y-54986783D02*
X101180717Y-48260000D01*
X116739511Y-49840489D02*
X116739511Y-55074511D01*
X107907500Y-57150000D02*
X107907500Y-54986783D01*
%TO.N,Net-(U1-EN)*%
X100287500Y-57150000D02*
X100287500Y-49755000D01*
X100287500Y-49755000D02*
X100832500Y-49210000D01*
%TD*%
M02*
