%TF.GenerationSoftware,KiCad,Pcbnew,9.0.1-9.0.1-0~ubuntu22.04.1*%
%TF.CreationDate,2025-03-31T20:17:24-04:00*%
%TF.ProjectId,usb_power,7573625f-706f-4776-9572-2e6b69636164,rev?*%
%TF.SameCoordinates,Original*%
%TF.FileFunction,Copper,L2,Bot*%
%TF.FilePolarity,Positive*%
%FSLAX46Y46*%
G04 Gerber Fmt 4.6, Leading zero omitted, Abs format (unit mm)*
G04 Created by KiCad (PCBNEW 9.0.1-9.0.1-0~ubuntu22.04.1) date 2025-03-31 20:17:24*
%MOMM*%
%LPD*%
G01*
G04 APERTURE LIST*
%TA.AperFunction,ComponentPad*%
%ADD10C,1.750000*%
%TD*%
%TA.AperFunction,ComponentPad*%
%ADD11C,2.600000*%
%TD*%
%TA.AperFunction,ComponentPad*%
%ADD12R,2.600000X2.600000*%
%TD*%
%TA.AperFunction,ComponentPad*%
%ADD13C,1.200000*%
%TD*%
%TA.AperFunction,ComponentPad*%
%ADD14O,2.400000X1.200000*%
%TD*%
%TA.AperFunction,ComponentPad*%
%ADD15O,2.100000X1.200000*%
%TD*%
%TA.AperFunction,ComponentPad*%
%ADD16R,1.600000X1.600000*%
%TD*%
%TA.AperFunction,ComponentPad*%
%ADD17O,1.600000X1.600000*%
%TD*%
%TA.AperFunction,ViaPad*%
%ADD18C,0.800000*%
%TD*%
%TA.AperFunction,Conductor*%
%ADD19C,0.250000*%
%TD*%
%TA.AperFunction,Conductor*%
%ADD20C,0.200000*%
%TD*%
G04 APERTURE END LIST*
D10*
%TO.P,RV1,1,1*%
%TO.N,Net-(R2-Pad1)*%
X108500000Y-51000000D03*
%TO.P,RV1,2,2*%
%TO.N,Net-(U1-FB)*%
X105960000Y-48460000D03*
%TO.P,RV1,3,3*%
%TO.N,Net-(R1-Pad2)*%
X108500000Y-45920000D03*
%TD*%
D11*
%TO.P,J2,2,Pin_2*%
%TO.N,GND*%
X77195000Y-52000000D03*
D12*
%TO.P,J2,1,Pin_1*%
%TO.N,Net-(J2-Pin_1)*%
X77195000Y-47000000D03*
%TD*%
D13*
%TO.P,J1,1,VBUS*%
%TO.N,Net-(J1-VBUS)*%
X126250000Y-53400000D03*
%TO.P,J1,2,D-*%
%TO.N,Net-(J1-D+)*%
X126250000Y-50900000D03*
%TO.P,J1,3,D+*%
X126250000Y-48900000D03*
%TO.P,J1,4,GND*%
%TO.N,GND*%
X126250000Y-46400000D03*
%TO.P,J1,5,SSRX-*%
%TO.N,unconnected-(J1-SSRX--Pad5)*%
X124750000Y-45900000D03*
%TO.P,J1,6,SSRX+*%
%TO.N,unconnected-(J1-SSRX+-Pad6)*%
X124750000Y-47900000D03*
%TO.P,J1,7,DRAIN*%
%TO.N,unconnected-(J1-DRAIN-Pad7)*%
X124750000Y-49900000D03*
%TO.P,J1,8,SSTX-*%
%TO.N,unconnected-(J1-SSTX--Pad8)*%
X124750000Y-51900000D03*
%TO.P,J1,9,SSTX+*%
%TO.N,unconnected-(J1-SSTX+-Pad9)*%
X124750000Y-53900000D03*
D14*
%TO.P,J1,10,SHIELD*%
%TO.N,unconnected-(J1-SHIELD-Pad10)*%
X125500000Y-56300000D03*
D15*
X134000000Y-56300000D03*
D14*
X125500000Y-43500000D03*
D15*
X134000000Y-43500000D03*
%TD*%
D16*
%TO.P,ON/OFF1,1*%
%TO.N,Net-(J1-VBUS)*%
X107907500Y-57150000D03*
D17*
%TO.P,ON/OFF1,2*%
%TO.N,Net-(U1-EN)*%
X100287500Y-57150000D03*
%TD*%
D18*
%TO.N,Net-(R2-Pad1)*%
X92000000Y-42000000D03*
X104000000Y-49500000D03*
%TO.N,Net-(R1-Pad2)*%
X99000000Y-42500000D03*
X103000000Y-45500000D03*
%TO.N,Net-(U1-FB)*%
X96012000Y-54356000D03*
X87884000Y-56896000D03*
%TO.N,GND*%
X96012000Y-47244000D03*
X86868000Y-44704000D03*
%TD*%
D19*
%TO.N,Net-(R2-Pad1)*%
X96500000Y-42000000D02*
X92000000Y-42000000D01*
X104000000Y-49500000D02*
X96500000Y-42000000D01*
%TO.N,Net-(R1-Pad2)*%
X100000000Y-42500000D02*
X99000000Y-42500000D01*
X103000000Y-45500000D02*
X100000000Y-42500000D01*
D20*
%TO.N,Net-(U1-FB)*%
X87884000Y-56896000D02*
X90424000Y-54356000D01*
X90424000Y-54356000D02*
X96012000Y-54356000D01*
%TO.N,GND*%
X86868000Y-44704000D02*
X89408000Y-47244000D01*
X89408000Y-47244000D02*
X96012000Y-47244000D01*
%TD*%
M02*
